<!DOCTYPE svg PUBLIC "-//W3C//DTD SVG 20010904//EN" "http://www.w3.org/TR/2001/REC-SVG-20010904/DTD/svg10.dtd">
<svg version="1.0" xmlns="http://www.w3.org/2000/svg" width="320px" height="320px" viewBox="0 0 3200 3200" preserveAspectRatio="xMidYMid meet">
<g id="layer101" fill="#000000" stroke="none">
 <path d="M1406 3191 c-3 -4 -32 -11 -65 -14 -69 -7 -127 -21 -231 -54 -319 -102 -618 -322 -813 -597 -111 -157 -215 -379 -249 -531 -39 -179 -42 -205 -42 -395 0 -190 3 -216 42 -395 34 -152 137 -374 250 -532 96 -138 237 -279 375 -375 158 -113 380 -216 532 -250 179 -39 205 -42 395 -42 190 0 216 3 395 42 152 34 374 138 531 249 275 195 495 494 597 813 33 104 47 162 54 231 3 33 10 62 14 65 12 7 12 381 0 388 -4 3 -11 32 -14 65 -8 75 -55 252 -87 326 -91 214 -210 394 -360 545 -151 150 -331 269 -545 360 -74 32 -251 79 -326 87 -33 3 -62 10 -65 14 -3 5 -90 9 -194 9 -104 0 -191 -4 -194 -9z m64 -116 c-14 -8 -32 -17 -40 -20 -108 -45 -255 -126 -315 -176 -11 -10 -50 -42 -87 -73 l-67 -56 -150 0 c-84 0 -151 4 -151 9 0 12 209 150 270 178 127 60 226 96 335 122 51 12 159 28 205 30 l25 1 -25 -15z m465 -17 c61 -14 188 -54 232 -74 17 -8 36 -14 43 -14 6 0 8 -4 5 -10 -3 -5 -44 -10 -90 -10 -46 0 -107 -5 -137 -11 -29 -6 -87 -18 -128 -26 -173 -35 -337 -112 -457 -214 l-32 -27 -71 24 c-39 13 -99 28 -133 34 -90 16 -99 24 -62 55 17 14 67 50 113 81 148 99 280 155 443 188 131 27 171 27 274 4z m376 -185 c61 -12 226 -195 306 -338 88 -156 154 -326 192 -489 42 -184 45 -218 44 -451 -1 -236 -1 -235 -52 -455 -38 -164 -182 -438 -300 -570 l-39 -45 -164 0 c-168 0 -318 19 -318 40 0 6 12 22 26 36 88 82 192 275 252 469 78 254 89 642 26 930 -26 118 -64 250 -76 264 -4 6 -8 16 -8 23 0 36 -153 329 -190 363 -3 3 -22 28 -42 55 -20 28 -53 66 -72 84 -20 19 -36 40 -36 46 0 6 35 17 78 24 42 7 84 14 92 16 30 6 249 5 281 -2z m-480 -115 c58 -59 145 -171 178 -228 117 -202 179 -378 230 -650 17 -91 23 -327 12 -460 -15 -171 -24 -220 -68 -365 -47 -158 -126 -300 -220 -401 -80 -85 -80 -84 -190 -37 -17 7 -34 13 -38 13 -18 0 -155 76 -205 113 -89 66 -87 61 -42 114 93 112 178 281 222 443 7 25 17 59 22 75 19 62 38 203 38 295 0 221 -60 472 -164 678 -40 80 -111 192 -150 237 -14 17 -26 36 -26 43 0 25 146 118 255 162 11 4 31 12 45 18 37 16 35 17 101 -50z m845 -119 c131 -142 226 -286 307 -469 62 -138 117 -408 117 -570 0 -71 -23 -252 -42 -335 -48 -212 -155 -429 -293 -600 -55 -68 -62 -74 -127 -97 -52 -18 -67 -12 -40 18 94 105 211 341 265 534 46 163 61 283 61 480 1 249 -23 398 -101 640 -28 87 -28 87 -84 205 -23 50 -68 132 -101 183 -49 79 -54 91 -31 74 16 -11 46 -40 69 -63z m-1631 41 c176 -18 294 -57 333 -109 15 -20 30 -38 33 -41 28 -23 159 -265 159 -295 0 -16 1 -16 -95 5 -105 23 -280 32 -505 27 -239 -6 -315 -13 -450 -41 -130 -26 -163 -34 -229 -56 -35 -12 -67 -18 -72 -13 -24 24 172 343 276 449 l61 62 89 7 c50 3 97 8 105 9 33 8 210 5 295 -4z m345 -496 c137 -21 210 -37 219 -49 8 -11 32 -101 53 -205 15 -74 16 -417 1 -465 -11 -34 -26 -36 -118 -16 -201 44 -298 52 -545 48 -231 -4 -312 -11 -455 -37 -79 -15 -184 -39 -215 -49 -14 -5 -43 -14 -65 -21 -22 -7 -60 -21 -83 -32 -24 -11 -47 -17 -50 -14 -12 12 -31 164 -31 249 -1 85 18 248 40 337 23 96 32 117 58 132 68 40 257 90 446 120 172 26 577 28 745 2z m-206 -754 c158 -9 239 -19 326 -40 115 -28 120 -30 120 -54 0 -42 -51 -184 -97 -269 -8 -15 -20 -39 -28 -53 -7 -14 -35 -57 -61 -95 -43 -61 -52 -69 -74 -65 -14 3 -70 14 -125 26 -83 17 -125 20 -245 17 -80 -3 -176 -12 -215 -20 -38 -9 -83 -18 -100 -22 -16 -4 -39 -10 -50 -15 -11 -4 -45 -18 -75 -30 -30 -12 -79 -35 -108 -51 -29 -16 -57 -29 -62 -29 -18 0 -123 184 -180 315 -24 53 -60 175 -60 199 0 23 8 30 53 50 169 74 410 123 667 136 74 4 137 7 140 8 3 1 81 -3 174 -8z m91 -620 c22 -6 56 -16 75 -22 19 -6 53 -27 75 -48 63 -58 106 -86 220 -142 33 -16 68 -33 77 -38 10 -6 25 -10 33 -10 8 0 23 -4 33 -9 9 -6 44 -17 77 -26 33 -10 71 -21 85 -25 108 -37 394 -50 530 -25 80 14 109 7 74 -20 -62 -48 -214 -143 -244 -153 -19 -6 -86 -17 -148 -23 -117 -13 -297 -3 -387 22 -93 25 -151 44 -159 51 -6 4 -16 8 -23 8 -35 0 -239 112 -350 192 -98 70 -293 254 -293 276 0 13 19 14 143 9 78 -3 160 -11 182 -17z m-308 -116 c220 -219 486 -386 713 -446 132 -35 214 -48 296 -48 51 0 95 -4 98 -8 9 -14 -134 -54 -259 -72 -106 -16 -214 -3 -395 47 -116 32 -289 97 -355 133 -16 9 -57 32 -90 50 -110 61 -189 123 -308 242 -96 97 -116 122 -108 136 9 17 216 87 269 91 8 1 70 -56 139 -125z m-455 -31 c24 -41 174 -191 246 -247 81 -61 221 -150 292 -183 40 -19 50 -28 36 -31 -10 -2 -28 0 -40 6 -206 94 -357 194 -493 326 -56 55 -105 106 -108 114 -7 18 12 42 34 42 9 0 24 -12 33 -27z m633 -473 c3 -5 -3 -10 -14 -10 -12 0 -21 5 -21 10 0 6 6 10 14 10 8 0 18 -4 21 -10z"/>
 </g>

</svg>