<!DOCTYPE svg PUBLIC "-//W3C//DTD SVG 20010904//EN" "http://www.w3.org/TR/2001/REC-SVG-20010904/DTD/svg10.dtd">
<svg version="1.0" xmlns="http://www.w3.org/2000/svg" width="1600px" height="1600px" viewBox="0 0 16000 16000" preserveAspectRatio="xMidYMid meet">
<g id="layer101" fill="#040303" stroke="none">
 <path d="M15250 10183 c-30 -1 -1326 -5 -2880 -7 -1554 -2 -2845 -5 -2870 -5 -25 -1 -1723 0 -3775 3 -2051 3 -3712 1 -3690 -3 l40 -8 -37 -2 c-20 0 -40 4 -43 10 -9 14 -186 10 -204 -5 -11 -8 -13 -8 -8 1 6 10 -157 12 -742 13 l-751 0 0 -2175 0 -2175 387 0 c250 1 393 5 406 11 14 8 17 8 13 0 -10 -15 -56 -15 5529 -15 7322 0 9032 3 9016 13 -10 6 -1 8 27 4 l42 -6 0 2177 0 2176 -202 -2 c-112 -1 -228 -3 -258 -5z m-14737 -20 c-13 -2 -33 -2 -45 0 -13 2 -3 4 22 4 25 0 35 -2 23 -4z m175 0 c-10 -2 -28 -2 -40 0 -13 2 -5 4 17 4 22 1 32 -1 23 -4z m280 0 c-10 -2 -28 -2 -40 0 -13 2 -5 4 17 4 22 1 32 -1 23 -4z m535 0 c-13 -2 -33 -2 -45 0 -13 2 -3 4 22 4 25 0 35 -2 23 -4z m385 0 c-10 -2 -26 -2 -35 0 -10 3 -2 5 17 5 19 0 27 -2 18 -5z m250 0 c-10 -2 -26 -2 -35 0 -10 3 -2 5 17 5 19 0 27 -2 18 -5z m830 0 c-10 -2 -26 -2 -35 0 -10 3 -2 5 17 5 19 0 27 -2 18 -5z m225 0 c-18 -2 -48 -2 -65 0 -18 2 -4 4 32 4 36 0 50 -2 33 -4z m9090 0 c-13 -2 -33 -2 -45 0 -13 2 -3 4 22 4 25 0 35 -2 23 -4z"/>
 </g>
<g id="layer102" fill="#484848" stroke="none">
 <path d="M14385 10180 c-506 -3 -906 -7 -890 -9 17 -2 519 -2 1117 -1 l1088 2 3 -2169 2 -2168 3 2178 2 2177 -202 -2 c-112 -2 -617 -5 -1123 -8z"/>
 <path d="M291 9247 c0 -548 4 -923 9 -910 5 12 8 421 8 918 -1 629 2 899 9 903 8 5 5579 5 5768 0 11 0 29 1 40 2 11 1 138 -1 283 -5 178 -4 262 -3 262 4 0 6 42 12 108 14 59 1 -1377 4 -3190 5 l-3298 2 1 -933z"/>
 <path d="M10071 10176 c9 -9 1417 -14 1430 -5 8 5 -297 9 -710 9 -398 0 -722 -2 -720 -4z"/>
 <path d="M11524 10172 c7 -12 1897 -14 1916 -2 9 6 -343 10 -953 10 -533 0 -966 -4 -963 -8z"/>
 <path d="M9090 10163 c0 -5 70 -9 155 -9 85 -1 155 2 155 7 0 5 -70 9 -155 9 -85 0 -155 -3 -155 -7z"/>
 <path d="M291 8283 c0 -25 1 -26 9 -8 12 27 12 35 0 35 -5 0 -10 -12 -9 -27z"/>
 <path d="M291 6988 l-1 -1158 372 0 c204 0 368 3 364 7 -4 4 -168 8 -364 8 l-357 0 3 1125 c2 740 0 1134 -7 1150 -7 17 -10 -344 -10 -1132z"/>
 <path d="M1094 5839 c-3 -5 56 -9 142 -9 81 0 145 2 143 4 -9 9 -279 14 -285 5z"/>
 <path d="M1525 5839 c-27 -4 -7 -7 60 -7 69 -1 95 1 85 8 -16 11 -76 10 -145 -1z"/>
 <path d="M2918 5840 c-12 -7 -201 -10 -568 -8 -302 2 -550 0 -550 -4 0 -5 2015 -7 4478 -7 2462 1 4468 3 4457 5 -11 2 -1617 5 -3570 8 -1952 2 -3703 6 -3890 10 -228 4 -346 3 -357 -4z"/>
 <path d="M12850 5840 l-35 -7 38 -2 c20 0 37 4 37 9 0 6 -1 9 -2 9 -2 -1 -19 -5 -38 -9z"/>
 <path d="M13203 5838 c-2 -5 19 -8 48 -8 29 0 49 3 45 8 -4 4 -26 7 -48 7 -22 0 -42 -3 -45 -7z"/>
 <path d="M13325 5840 c-11 -5 485 -9 1149 -9 643 -1 1167 1 1164 4 -9 9 -2292 14 -2313 5z"/>
 <path d="M1423 5833 c9 -2 25 -2 35 0 9 3 1 5 -18 5 -19 0 -27 -2 -17 -5z"/>
 <path d="M11180 5830 l-25 -8 28 -1 c15 -1 27 4 27 9 0 6 -1 10 -2 9 -2 -1 -14 -5 -28 -9z"/>
 <path d="M11668 5833 c12 -2 30 -2 40 0 9 3 -1 5 -23 4 -22 0 -30 -2 -17 -4z"/>
 <path d="M12593 5833 c9 -2 25 -2 35 0 9 3 1 5 -18 5 -19 0 -27 -2 -17 -5z"/>
 <path d="M10848 5823 c12 -2 32 -2 45 0 12 2 2 4 -23 4 -25 0 -35 -2 -22 -4z"/>
 </g>
<g id="layer103" fill="#8f8f8e" stroke="none">
 <path d="M15175 10180 c-85 -5 -15 -7 203 -6 182 0 332 4 332 8 0 9 -335 7 -535 -2z"/>
 <path d="M292 9273 l3 -908 2 902 c3 848 4 902 21 906 13 4 11 5 -5 6 l-23 1 2 -907z"/>
 <path d="M413 10173 c37 -2 96 -2 130 0 34 2 4 3 -68 3 -72 0 -99 -1 -62 -3z"/>
 <path d="M633 10173 c15 -2 39 -2 55 0 15 2 2 4 -28 4 -30 0 -43 -2 -27 -4z"/>
 <path d="M928 10173 c12 -2 30 -2 40 0 9 3 -1 5 -23 4 -22 0 -30 -2 -17 -4z"/>
 <path d="M2303 10173 c75 -2 199 -2 275 0 75 1 13 3 -138 3 -151 0 -213 -2 -137 -3z"/>
 <path d="M2768 10173 c28 -2 76 -2 105 0 28 2 5 3 -53 3 -58 0 -81 -1 -52 -3z"/>
 <path d="M2943 10173 c9 -2 25 -2 35 0 9 3 1 5 -18 5 -19 0 -27 -2 -17 -5z"/>
 <path d="M3143 10173 c26 -2 68 -2 95 0 26 2 4 3 -48 3 -52 0 -74 -1 -47 -3z"/>
 <path d="M3338 10173 c12 -2 30 -2 40 0 9 3 -1 5 -23 4 -22 0 -30 -2 -17 -4z"/>
 <path d="M3463 10173 c9 -2 25 -2 35 0 9 3 1 5 -18 5 -19 0 -27 -2 -17 -5z"/>
 <path d="M3557 10173 c18 -2 50 -2 70 0 21 2 7 4 -32 4 -38 0 -55 -2 -38 -4z"/>
 <path d="M3728 10173 c12 -2 30 -2 40 0 9 3 -1 5 -23 4 -22 0 -30 -2 -17 -4z"/>
 <path d="M3803 10173 c9 -2 25 -2 35 0 9 3 1 5 -18 5 -19 0 -27 -2 -17 -5z"/>
 <path d="M3883 10173 c15 -2 39 -2 55 0 15 2 2 4 -28 4 -30 0 -43 -2 -27 -4z"/>
 <path d="M4143 10173 c26 -2 67 -2 90 0 23 2 2 3 -48 3 -49 0 -68 -1 -42 -3z"/>
 <path d="M4543 10173 c9 -2 25 -2 35 0 9 3 1 5 -18 5 -19 0 -27 -2 -17 -5z"/>
 <path d="M4821 10176 c7 -8 2048 -10 2056 -3 3 4 -459 7 -1027 7 -568 0 -1031 -2 -1029 -4z"/>
 <path d="M10208 10173 c78 -2 206 -2 285 0 78 1 14 3 -143 3 -157 0 -221 -2 -142 -3z"/>
 <path d="M10743 10173 c59 -2 155 -2 215 0 59 1 10 3 -108 3 -118 0 -167 -2 -107 -3z"/>
 <path d="M11098 10173 c12 -2 32 -2 45 0 12 2 2 4 -23 4 -25 0 -35 -2 -22 -4z"/>
 <path d="M11193 10173 c9 -2 25 -2 35 0 9 3 1 5 -18 5 -19 0 -27 -2 -17 -5z"/>
 <path d="M11268 10173 c12 -2 30 -2 40 0 9 3 -1 5 -23 4 -22 0 -30 -2 -17 -4z"/>
 <path d="M11788 10173 c29 -2 74 -2 100 0 26 2 2 3 -53 3 -55 0 -76 -1 -47 -3z"/>
 <path d="M12063 10173 c15 -2 39 -2 55 0 15 2 2 4 -28 4 -30 0 -43 -2 -27 -4z"/>
 <path d="M12188 10173 c23 -2 61 -2 85 0 23 2 4 4 -43 4 -47 0 -66 -2 -42 -4z"/>
 <path d="M12321 10176 c7 -7 1108 -10 1115 -3 4 4 -246 7 -556 7 -310 0 -561 -2 -559 -4z"/>
 <path d="M13608 10173 c46 -2 118 -2 160 0 42 1 5 3 -83 3 -88 0 -123 -2 -77 -3z"/>
 <path d="M14163 10173 c20 -2 54 -2 75 0 20 2 3 4 -38 4 -41 0 -58 -2 -37 -4z"/>
 <path d="M14348 10173 c23 -2 59 -2 80 0 20 2 1 4 -43 4 -44 0 -61 -2 -37 -4z"/>
 <path d="M14623 10173 c71 -2 183 -2 250 0 67 1 10 3 -128 3 -137 0 -192 -2 -122 -3z"/>
 <path d="M9283 10163 c9 -2 25 -2 35 0 9 3 1 5 -18 5 -19 0 -27 -2 -17 -5z"/>
 <path d="M9353 10163 c9 -2 25 -2 35 0 9 3 1 5 -18 5 -19 0 -27 -2 -17 -5z"/>
 <path d="M292 6948 l-2 -1118 23 1 c16 1 18 2 5 6 -17 4 -18 68 -21 1116 l-2 1112 -3 -1117z"/>
 <path d="M423 5833 c48 -2 125 -2 170 0 45 1 6 3 -88 3 -93 0 -130 -2 -82 -3z"/>
 <path d="M743 5833 c9 -2 25 -2 35 0 9 3 1 5 -18 5 -19 0 -27 -2 -17 -5z"/>
 <path d="M2370 5830 c-316 -3 995 -5 2915 -6 1920 0 3465 1 3435 3 -101 5 -5765 8 -6350 3z"/>
 <path d="M13992 5833 c300 -2 795 -2 1100 0 304 1 58 2 -547 2 -605 0 -854 -1 -553 -2z"/>
 <path d="M9273 5823 c274 -2 720 -2 990 0 271 1 47 2 -498 2 -544 0 -766 -1 -492 -2z"/>
 <path d="M10848 5823 c12 -2 32 -2 45 0 12 2 2 4 -23 4 -25 0 -35 -2 -22 -4z"/>
 </g>

</svg>